# xmcd
#
# Track frame offsets:
#	150
#	19685
#	38847
#	55540
#	73487
#	99580
#	120587
#	138265
#	160955
#	177040
#	198780
#	217082
#	236517
#	254215
#	272245
#
# Disc length: 3875 seconds
#
# Revision: 1
# Processed by: cddbd v1.5.1PL0 Copyright (c) Steve Scherf et al.
# Submitted via: CDex 1.50Beta5
#
DISCID=db0f210f
DTITLE=Various Artist - Naturally in the moonlight
DYEAR=1900
DGENRE=
TTITLE0=久石譲/Here We Are
TTITLE1=寺井尚子/Thinking Of You
TTITLE2=都留教博+中村由利子/ノスタルジア
TTITLE3=テレサ・ブライト/KISS OF LIFE
TTITLE4=鷺巣詩郎/REACHING FOR THE TOP
TTITLE5=CASIOPEA/SEARCH MY HEART
TTITLE6=久石譲/THE WALTZ
TTITLE7=松居慶子/CHERRY BLOSSOM
TTITLE8=都留教博+中村由利子/太古の調べにくるまれて
TTITLE9=寺井尚子/Cantaloupe Island
TTITLE10=鷺巣詩郎/THANATOS
TTITLE11=松居慶子/FRONTIER
TTITLE12=CASIOPEA/PRIVATE SUNDAY
TTITLE13=サンドラ・クロス/Moon River
TTITLE14=久石譲/Labyrinth of Eden
EXTD=
EXTT0=
EXTT1=
EXTT2=
EXTT3=
EXTT4=
EXTT5=
EXTT6=
EXTT7=
EXTT8=
EXTT9=
EXTT10=
EXTT11=
EXTT12=
EXTT13=
EXTT14=
PLAYORDER=
